<svg width="321px" height="411px" viewBox="0 0 321 411" version="1.1" xmlns="http://www.w3.org/2000/svg" xmlns:xlink="http://www.w3.org/1999/xlink">
    <g id="Page-1" stroke="none" stroke-width="1" fill="none" fill-rule="evenodd">
        <g id="Artboard">
            <polygon id="Fill-2" fill="#80CBE3" points="-61.9997 288.9998 53.0003 411.9998 95.0003 295.9998"></polygon>
            <polygon id="Fill-34" fill="#B4DFF0" points="70.0002 68.9997 69.0002 123.9997 120.0002 138.9997"></polygon>
            <polygon id="Fill-57" fill="#7FC8E6" points="-17.9999 197.9997 0.0001 242.9997 43.0001 243.9997"></polygon>
            <polygon id="Fill-59" fill="#D5EDF7" points="193.0002 37.9998 70.0002 68.9998 195.0002 102.9998"></polygon>
            <polygon id="Fill-64" fill="#8DCDEC" points="39 -21.0004 -117 12.9996 -79 130.9996"></polygon>
            <polygon id="Fill-68" fill="#90CFEC" points="70.0002 68.9997 -78.9998 130.9997 69.0002 123.9997"></polygon>
            <polygon id="Fill-69" fill="#A5D8EF" points="39 -21.0004 39 -21.0004 -79 130.9996 70 68.9996"></polygon>
            <polygon id="Fill-70" fill="#68C1DF" points="-61.9997 288.9998 -61.9997 288.9998 -76.9997 425.9998 53.0003 411.9998"></polygon>
            <polygon id="Fill-74" fill="#7AC5E7" points="69.0002 123.9999 -78.9998 130.9999 -17.9998 197.9999"></polygon>
            <polygon id="Fill-75" fill="#8ACDE8" points="69.0002 123.9999 -17.9998 197.9999 43.0002 243.9999"></polygon>
            <polygon id="Fill-76" fill="#BFE5F1" points="120.0001 138.9999 43.0001 243.9999 95.0001 295.9999"></polygon>
            <polygon id="Fill-77" fill="#AADBED" points="69.0002 123.9999 69.0002 123.9999 43.0002 243.9999 120.0002 138.9999"></polygon>
            <polygon id="Fill-78" fill="#94D2E9" points="0.0001 242.9999 0.0001 242.9999 -61.9999 288.9999 95.0001 295.9999"></polygon>
            <polygon id="Fill-79" fill="#AADCED" points="0.0001 242.9999 95.0001 295.9999 43.0001 243.9999"></polygon>
            <polygon id="Fill-80" fill="#DFF2F9" points="174.0003 -40.0003 70.0003 68.9997 193.0003 37.9997"></polygon>
            <polygon id="Fill-82" fill="#C1E7F0" points="95.0001 295.9997 95.0001 295.9997 53.0001 411.9997 162.0001 348.9997"></polygon>
            <polygon id="Fill-90" fill="#C8E7F6" points="174.0003 -40.0003 39.0003 -21.0003 70.0003 68.9997"></polygon>
            <polygon id="Fill-92" fill="#C9E9F4" points="70.0002 68.9997 120.0002 138.9997 195.0002 102.9997"></polygon>
            <polygon id="Fill-94" fill="#D5EEF6" points="195.0002 102.9996 195.0002 102.9996 120.0002 138.9996 219.0002 148.9996"></polygon>
            <polygon id="Fill-95" fill="#E0F3F9" points="195.0002 102.9996 219.0002 148.9996 272.0002 121.9996"></polygon>
            <polygon id="Fill-96" fill="#E5F6F9" points="193.0002 37.9998 195.0002 102.9998 272.0002 121.9998"></polygon>
            <polygon id="Fill-97" fill="#D5EEF6" points="120.0001 138.9999 120.0001 138.9999 95.0001 295.9999 220.0001 254.9999"></polygon>
            <polygon id="Fill-98" fill="#E0F3F9" points="120.0001 138.9999 220.0001 254.9999 219.0001 148.9999"></polygon>
            <polygon id="Fill-99" fill="#E1F3F8" points="220.0001 254.9999 95.0001 295.9999 162.0001 348.9999"></polygon>
            <polygon id="Fill-100" fill="#E8F7F9" points="220.0001 254.9999 220.0001 254.9999 162.0001 348.9999 239.0001 357.9999"></polygon>
            <polygon id="Fill-104" fill="#EBF7FA" points="192.9999 38 271.9999 122 295.9999 -81"></polygon>
            <polygon id="Fill-106" fill="#E5F4FA" points="173.9999 -40 192.9999 38 295.9999 -81"></polygon>
            <polygon id="Fill-53" fill="#ECF9F9" points="239.0002 358.0002 296.0002 271.0002 220.0002 255.0002"></polygon>
            <polygon id="Fill-55" fill="#ECF9F9" points="239.0001 358 239.0001 358 171.0001 426 283.0001 469"></polygon>
            <polygon id="Fill-81" fill="#CEECF2" points="161.9999 348.9996 52.9999 411.9996 170.9999 425.9996"></polygon>
            <polygon id="Fill-101" fill="#E3F4F8" points="161.9999 348.9996 170.9999 425.9996 238.9999 357.9996"></polygon>
            <polygon id="Fill-102" fill="#E8F7F9" points="220.0003 254.9997 296.0003 270.9997 219.0003 148.9997"></polygon>
            <polygon id="Fill-105" fill="#ECF8FA" points="219.0004 148.9995 296.0004 270.9995 271.9994 122.0005"></polygon>
        </g>
    </g>
</svg>
