<?xml version="1.0" encoding="UTF-8" standalone="no"?>
<svg
   xmlns:dc="http://purl.org/dc/elements/1.1/"
   xmlns:cc="http://creativecommons.org/ns#"
   xmlns:rdf="http://www.w3.org/1999/02/22-rdf-syntax-ns#"
   xmlns:svg="http://www.w3.org/2000/svg"
   xmlns="http://www.w3.org/2000/svg"
   id="svg45"
   version="1.1"
   viewBox="0 0 321 411"
   height="411px"
   width="321px">
  <metadata
     id="metadata51">
    <rdf:RDF>
      <cc:Work
         rdf:about="">
        <dc:format>image/svg+xml</dc:format>
        <dc:type
           rdf:resource="http://purl.org/dc/dcmitype/StillImage" />
        <dc:title></dc:title>
      </cc:Work>
    </rdf:RDF>
  </metadata>
  <defs
     id="defs49" />
  <g
     transform="rotate(-180,89.5002,194)"
     fill-rule="evenodd"
     fill="none"
     stroke-width="1"
     stroke="none"
     id="Page-1">
    <g
       id="Artboard">
      <polygon
         points="53.0003,411.9998 95.0003,295.9998 -61.9997,288.9998 "
         fill="#80CBE3"
         id="Fill-2" />
      <polygon
         points="69.0002,123.9997 120.0002,138.9997 70.0002,68.9997 "
         fill="#B4DFF0"
         id="Fill-34" />
      <polygon
         points="0.0001,242.9997 43.0001,243.9997 -17.9999,197.9997 "
         fill="#7FC8E6"
         id="Fill-57" />
      <polygon
         points="70.0002,68.9998 195.0002,102.9998 193.0002,37.9998 "
         fill="#D5EDF7"
         id="Fill-59" />
      <polygon
         points="-117,12.9996 -79,130.9996 39,-21.0004 "
         fill="#8DCDEC"
         id="Fill-64" />
      <polygon
         points="-78.9998,130.9997 69.0002,123.9997 70.0002,68.9997 "
         fill="#90CFEC"
         id="Fill-68" />
      <polygon
         points="39,-21.0004 -79,130.9996 70,68.9996 39,-21.0004 "
         fill="#A5D8EF"
         id="Fill-69" />
      <polygon
         points="-61.9997,288.9998 -76.9997,425.9998 53.0003,411.9998 -61.9997,288.9998 "
         fill="#68C1DF"
         id="Fill-70" />
      <polygon
         points="-78.9998,130.9999 -17.9998,197.9999 69.0002,123.9999 "
         fill="#7AC5E7"
         id="Fill-74" />
      <polygon
         points="-17.9998,197.9999 43.0002,243.9999 69.0002,123.9999 "
         fill="#8ACDE8"
         id="Fill-75" />
      <polygon
         points="43.0001,243.9999 95.0001,295.9999 120.0001,138.9999 "
         fill="#BFE5F1"
         id="Fill-76" />
      <polygon
         points="69.0002,123.9999 43.0002,243.9999 120.0002,138.9999 69.0002,123.9999 "
         fill="#AADBED"
         id="Fill-77" />
      <polygon
         points="0.0001,242.9999 -61.9999,288.9999 95.0001,295.9999 0.0001,242.9999 "
         fill="#94D2E9"
         id="Fill-78" />
      <polygon
         points="95.0001,295.9999 43.0001,243.9999 0.0001,242.9999 "
         fill="#AADCED"
         id="Fill-79" />
      <polygon
         points="70.0003,68.9997 193.0003,37.9997 174.0003,-40.0003 "
         fill="#DFF2F9"
         id="Fill-80" />
      <polygon
         points="95.0001,295.9997 53.0001,411.9997 162.0001,348.9997 95.0001,295.9997 "
         fill="#C1E7F0"
         id="Fill-82" />
      <polygon
         points="39.0003,-21.0003 70.0003,68.9997 174.0003,-40.0003 "
         fill="#C8E7F6"
         id="Fill-90" />
      <polygon
         points="120.0002,138.9997 195.0002,102.9997 70.0002,68.9997 "
         fill="#C9E9F4"
         id="Fill-92" />
      <polygon
         points="195.0002,102.9996 120.0002,138.9996 219.0002,148.9996 195.0002,102.9996 "
         fill="#D5EEF6"
         id="Fill-94" />
      <polygon
         points="219.0002,148.9996 272.0002,121.9996 195.0002,102.9996 "
         fill="#E0F3F9"
         id="Fill-95" />
      <polygon
         points="195.0002,102.9998 272.0002,121.9998 193.0002,37.9998 "
         fill="#E5F6F9"
         id="Fill-96" />
      <polygon
         points="120.0001,138.9999 95.0001,295.9999 220.0001,254.9999 120.0001,138.9999 "
         fill="#D5EEF6"
         id="Fill-97" />
      <polygon
         points="220.0001,254.9999 219.0001,148.9999 120.0001,138.9999 "
         fill="#E0F3F9"
         id="Fill-98" />
      <polygon
         points="95.0001,295.9999 162.0001,348.9999 220.0001,254.9999 "
         fill="#E1F3F8"
         id="Fill-99" />
      <polygon
         points="220.0001,254.9999 162.0001,348.9999 239.0001,357.9999 220.0001,254.9999 "
         fill="#E8F7F9"
         id="Fill-100" />
      <polygon
         points="271.9999,122 295.9999,-81 192.9999,38 "
         fill="#EBF7FA"
         id="Fill-104" />
      <polygon
         points="192.9999,38 295.9999,-81 173.9999,-40 "
         fill="#E5F4FA"
         id="Fill-106" />
      <polygon
         points="296.0002,271.0002 220.0002,255.0002 239.0002,358.0002 "
         fill="#ECF9F9"
         id="Fill-53" />
      <polygon
         points="239.0001,358 171.0001,426 283.0001,469 239.0001,358 "
         fill="#ECF9F9"
         id="Fill-55" />
      <polygon
         points="52.9999,411.9996 170.9999,425.9996 161.9999,348.9996 "
         fill="#CEECF2"
         id="Fill-81" />
      <polygon
         points="170.9999,425.9996 238.9999,357.9996 161.9999,348.9996 "
         fill="#E3F4F8"
         id="Fill-101" />
      <polygon
         points="296.0003,270.9997 219.0003,148.9997 220.0003,254.9997 "
         fill="#E8F7F9"
         id="Fill-102" />
      <polygon
         points="296.0004,270.9995 271.9994,122.0005 219.0004,148.9995 "
         fill="#ECF8FA"
         id="Fill-105" />
    </g>
  </g>
</svg>
